HIERARCHY
ROOT RootJoint
{
    OFFSET   0.000000   0.000000   0.000000
    CHANNELS 6 Xposition Yposition Zposition Xrotation Yrotation Zrotation
    JOINT pelvis_lowerback
    {
        OFFSET   0.000000   0.093605   0.000000
        CHANNELS 3 Xrotation Yrotation Zrotation
        JOINT lowerback_torso
        {
            OFFSET   0.000000   0.100000   0.000000
            CHANNELS 3 Xrotation Yrotation Zrotation
            JOINT torso_head
            {
                OFFSET   0.000000   0.282350   0.000000
                CHANNELS 3 Xrotation Yrotation Zrotation
                End Site
                {
                    OFFSET   0.000000   0.192650   0.000000
                }
            }
            JOINT rTorso_Clavicle
            {
                OFFSET  -0.001000   0.157500   0.000000
                CHANNELS 3 Xrotation Yrotation Zrotation
                JOINT rShoulder
                {
                    OFFSET  -0.117647   0.000000   0.000000
                    CHANNELS 3 Xrotation Yrotation Zrotation
                    JOINT rElbow
                    {
                        OFFSET  -0.245000   0.000000   0.000000
                        CHANNELS 3 Xrotation Yrotation Zrotation
                        JOINT rWrist
                        {
                            OFFSET  -0.240000   0.000000   0.000000
                            CHANNELS 3 Xrotation Yrotation Zrotation
                            End Site
                            {
                                OFFSET  -0.116353  -0.002500   0.000000
                            }
                        }
                    }
                }
            }
            JOINT lTorso_Clavicle
            {
                OFFSET   0.001000   0.157500   0.000000
                CHANNELS 3 Xrotation Yrotation Zrotation
                JOINT lShoulder
                {
                    OFFSET   0.117647   0.000000   0.000000
                    CHANNELS 3 Xrotation Yrotation Zrotation
                    JOINT lElbow
                    {
                        OFFSET   0.245000   0.000000   0.000000
                        CHANNELS 3 Xrotation Yrotation Zrotation
                        JOINT lWrist
                        {
                            OFFSET   0.240000   0.000000   0.000000
                            CHANNELS 3 Xrotation Yrotation Zrotation
                            End Site
                            {
                                OFFSET   0.116353  -0.002500   0.000000
                            }
                        }
                    }
                }
            }
        }
    }
    JOINT rHip
    {
        OFFSET  -0.100000  -0.051395   0.000000
        CHANNELS 3 Xrotation Yrotation Zrotation
        JOINT rKnee
        {
            OFFSET   0.000000  -0.410000   0.000000
            CHANNELS 3 Xrotation Yrotation Zrotation
            JOINT rAnkle
            {
                OFFSET   0.000000  -0.390000   0.000000
                CHANNELS 3 Xrotation Yrotation Zrotation
                JOINT rToeJoint
                {
                    OFFSET   0.000000  -0.050000   0.130000
                    CHANNELS 3 Xrotation Yrotation Zrotation
                    End Site
                    {
                        OFFSET  -0.010000   0.002000   0.060000
                    }
                }
            }
        }
    }
    JOINT lHip
    {
        OFFSET   0.100000  -0.051395   0.000000
        CHANNELS 3 Xrotation Yrotation Zrotation
        JOINT lKnee
        {
            OFFSET   0.000000  -0.410000   0.000000
            CHANNELS 3 Xrotation Yrotation Zrotation
            JOINT lAnkle
            {
                OFFSET   0.000000  -0.390000   0.000000
                CHANNELS 3 Xrotation Yrotation Zrotation
                JOINT lToeJoint
                {
                    OFFSET   0.000000  -0.050000   0.130000
                    CHANNELS 3 Xrotation Yrotation Zrotation
                    End Site
                    {
                        OFFSET   0.010000   0.002000   0.060000
                    }
                }
            }
        }
    }
}
MOTION
Frames: 7
Frame Time:   0.008333
 -2.376719   0.925631   3.975860   0.000000   0.000000   0.000000   0.000000   0.000000   0.000000   0.000000   0.000000   0.000000   0.000000   0.000000   0.000000   0.000000   0.000000   0.000000   0.000000   0.000000   0.000000   0.000000   0.000000   0.000000   0.000000   0.000000   0.000000   0.000000   0.000000   0.000000   0.000000   0.000000   0.000000   0.000000   0.000000   0.000000   0.000000   0.000000   0.000000   0.000000   0.000000   0.000000   0.000000   0.000000   0.000000   0.000000   0.000000   0.000000   0.000000   0.000000   0.000000   0.000000   0.000000   0.000000   0.000000   0.000000   0.000000   0.000000   0.000000   0.000000   0.000000   0.000000   0.000000
 -2.376467   0.925860   3.976486  -0.749176  -0.072948   0.138885   0.641066   0.093224  -0.143874   0.207378  -0.129109   0.010327   0.012409   0.008315   0.009091   0.249315  -0.520321  -0.153201   1.299412   0.129659   2.226895   0.066866   3.577961  -0.053286   0.100761  -1.524924  -2.204350   0.215873   0.520976   0.006558   1.565971   0.168564  -2.115687   0.067755  -3.584530   0.060644   0.077569   1.411111   2.352357   0.526442  -0.166403  -0.325024   1.150824   0.001834  -0.002413  -1.295410  -0.405972  -0.087085   0.034668   0.000083  -0.000194   0.764120  -0.121318  -0.041634   0.587390  -0.000508  -0.000984  -0.901384   0.300055   0.226985   0.096092  -0.000271   0.000090
 -2.376157   0.926313   3.977301  -1.569017  -0.160986   0.290475   1.194404   0.174959  -0.282301   0.455266  -0.256983   0.009116   0.064987   0.013000   0.019776   0.494236  -0.884447   0.254418   2.560675   0.473859   4.899194   0.162568   7.292311  -0.093900   0.261963  -2.033181  -3.838792   0.435415   0.896287  -0.566412   3.100575   0.122180  -4.705901   0.164005  -7.246504   0.107074   0.223321   1.840477   4.145862   1.110600  -0.350843  -0.798336   2.420073   0.004843  -0.005061  -2.503170  -0.793419  -0.180147   0.024433   0.000029  -0.000097   1.620787  -0.235729   0.014070   1.277413  -0.001704  -0.001942  -1.745504   0.580158   0.444089   0.136171  -0.000365   0.000101
 -2.375847   0.926669   3.978209  -2.360450  -0.262662   0.433489   1.659426   0.242659  -0.408132   0.655407  -0.384159   0.005565   0.105715   0.017337   0.031501   0.723291  -1.109692   1.022971   3.773953   0.970488   7.856241   0.266969  11.043045  -0.122783   0.428439  -2.160631  -4.826403   0.641747   1.123744  -1.504651   4.594687  -0.104970  -7.601024   0.260475 -10.709171   0.137907   0.381819   1.832384   5.271997   1.680366  -0.535971  -1.366126   3.644395   0.008072  -0.007391  -3.628436  -1.155539  -0.276033   0.018675  -0.000002  -0.000045   2.476117  -0.335157   0.174332   1.962020  -0.003263  -0.002623  -2.532626   0.840009   0.651138   0.171565  -0.000450   0.000102
 -2.375592   0.926681   3.979175  -3.104966  -0.375281   0.566361   2.054938   0.300582  -0.530059   0.805656  -0.506729  -0.010687   0.129400   0.021001   0.047574   0.938020  -1.234788   2.021588   4.938975   1.599793  11.011316   0.363601  14.678421  -0.141954   0.595235  -2.072918  -5.305812   0.837249   1.248671  -2.705605   5.985557  -0.462980 -10.573871   0.343494 -13.964673   0.156273   0.539662   1.634486   5.807848   2.218425  -0.719213  -1.999867   4.795884   0.011025  -0.009335  -4.679315  -1.493222  -0.373405   0.009905  -0.000047   0.000012   3.307883  -0.420076   0.426567   2.617026  -0.004928  -0.003029  -3.267930   1.081114   0.848376   0.200613  -0.000509   0.000095
 -2.375422   0.926158   3.980182  -3.800515  -0.491370   0.689055   2.396795   0.352385  -0.654455   0.917444  -0.621730  -0.042385   0.140063   0.023894   0.065410   1.139444  -1.292386   3.157772   6.054050   2.342380  14.303091   0.442187  18.087688  -0.153463   0.758231  -1.860768  -5.417212   1.022474   1.307624  -4.065826   7.262765  -0.914527 -13.513656   0.407803 -17.017710   0.165849   0.689273   1.346004   5.912364   2.721402  -0.899273  -2.678351   5.872635   0.013487  -0.010849  -5.661279  -1.807763  -0.471193  -0.002490  -0.000107   0.000075   4.108209  -0.491884   0.756252   3.237774  -0.006527  -0.003182  -3.955143   1.304780   1.035984   0.223769  -0.000539   0.000086
 -2.375335   0.924952   3.981216  -4.448974  -0.605392   0.800697   2.697504   0.399166  -0.780579   1.002925  -0.729627  -0.082406   0.141598   0.026357   0.080738   1.331863  -1.310854   4.381580   7.099841   3.162493  17.635273   0.500646  21.276448  -0.159400   0.909326  -1.609292  -5.246218   1.198273   1.327681  -5.505676   8.432798  -1.430944 -16.369590   0.452710 -19.875982   0.169532   0.827219   1.018269   5.726024   3.189315  -1.074854  -3.385647   6.878251   0.015404  -0.011939  -6.578933  -2.100446  -0.568469  -0.017530  -0.000174   0.000136   4.873636  -0.551711   1.148413   3.823963  -0.007939  -0.003130  -4.597467   1.512280   1.214202   0.242114  -0.000542   0.000075
